<?xml version="1.0" standalone="no"?>
<!DOCTYPE svg PUBLIC "-//W3C//DTD SVG 20010904//EN"
 "http://www.w3.org/TR/2001/REC-SVG-20010904/DTD/svg10.dtd">
<svg version="1.0" xmlns="http://www.w3.org/2000/svg"
 width="55.000000pt" height="55.000000pt" viewBox="0 0 55.000000 55.000000"
 preserveAspectRatio="xMidYMid meet">

<g transform="translate(0.000000,55.000000) scale(0.100000,-0.100000)"
fill="#000000" stroke="none">
<path d="M417 446 c-4 -10 -5 -21 -2 -24 9 -9 17 6 13 25 -3 17 -4 17 -11 -1z"/>
<path d="M411 314 c0 -11 3 -14 6 -6 3 7 2 16 -1 19 -3 4 -6 -2 -5 -13z"/>
<path d="M510 301 c0 -6 4 -13 10 -16 6 -3 7 1 4 9 -7 18 -14 21 -14 7z"/>
<path d="M256 291 c-10 -16 5 -41 24 -41 11 0 22 -4 25 -10 3 -5 1 -10 -4 -10
-6 0 -11 -4 -11 -10 0 -21 28 -9 32 15 6 29 2 35 -24 35 -10 0 -18 7 -18 15 0
17 -16 20 -24 6z"/>
<path d="M364 216 c-9 -15 -14 -29 -10 -33 3 -3 6 -1 6 5 0 6 7 18 16 27 9 9
14 18 11 21 -3 3 -13 -6 -23 -20z"/>
<path d="M504 215 c-3 -8 -4 -20 -2 -27 3 -7 7 -1 10 15 6 29 1 36 -8 12z"/>
<path d="M41 204 c0 -11 3 -14 6 -6 3 7 2 16 -1 19 -3 4 -6 -2 -5 -13z"/>
<path d="M70 208 c0 -9 5 -20 10 -23 13 -8 13 5 0 25 -8 13 -10 13 -10 -2z"/>
<path d="M230 210 c0 -5 7 -10 15 -10 8 0 15 5 15 10 0 6 -7 10 -15 10 -8 0
-15 -4 -15 -10z"/>
<path d="M466 205 c-9 -26 -7 -32 5 -12 6 10 9 21 6 23 -2 3 -7 -2 -11 -11z"/>
<path d="M330 155 c-7 -9 -11 -18 -8 -20 3 -3 11 1 18 10 7 9 11 18 8 20 -3 3
-11 -1 -18 -10z"/>
<path d="M60 155 c1 -14 38 -61 43 -55 3 3 -6 19 -19 35 -13 17 -24 26 -24 20z"/>
<path d="M138 138 c5 -21 4 -22 -13 -8 -10 8 -16 10 -12 3 4 -7 20 -21 36 -32
l28 -20 -19 39 c-23 45 -29 50 -20 18z"/>
<path d="M398 133 c-9 -32 6 -37 28 -10 14 16 14 18 2 9 -14 -11 -17 -10 -20
5 -3 15 -5 14 -10 -4z"/>
<path d="M462 134 c-7 -8 -8 -14 -3 -14 10 0 25 19 20 25 -2 1 -10 -3 -17 -11z"/>
<path d="M135 70 c10 -11 20 -20 23 -20 3 0 -3 9 -13 20 -10 11 -20 20 -23 20
-3 0 3 -9 13 -20z"/>
<path d="M395 70 c-3 -6 1 -7 9 -4 18 7 21 14 7 14 -6 0 -13 -4 -16 -10z"/>
<path d="M220 40 c-12 -8 -11 -10 5 -11 11 0 28 -2 38 -4 9 -2 17 1 17 7 0 6
-6 8 -14 5 -7 -3 -18 -1 -22 3 -5 5 -15 5 -24 0z"/>
</g>
</svg>
